<svg width="1281" height="333" viewBox="0 0 1281 333" fill="none" xmlns="http://www.w3.org/2000/svg">
<path d="M530.784 140.375H505.898C505.443 137.155 504.515 134.295 503.114 131.795C501.712 129.258 499.913 127.098 497.716 125.318C495.519 123.538 492.981 122.174 490.102 121.227C487.261 120.28 484.174 119.807 480.841 119.807C474.818 119.807 469.572 121.303 465.102 124.295C460.633 127.25 457.167 131.568 454.705 137.25C452.242 142.894 451.011 149.75 451.011 157.818C451.011 166.114 452.242 173.083 454.705 178.727C457.205 184.371 460.689 188.633 465.159 191.511C469.629 194.39 474.799 195.83 480.67 195.83C483.966 195.83 487.015 195.394 489.818 194.523C492.659 193.652 495.178 192.383 497.375 190.716C499.572 189.011 501.39 186.947 502.83 184.523C504.307 182.098 505.33 179.333 505.898 176.227L530.784 176.341C530.14 181.682 528.53 186.833 525.955 191.795C523.417 196.72 519.989 201.133 515.67 205.034C511.39 208.898 506.277 211.966 500.33 214.239C494.42 216.473 487.735 217.591 480.273 217.591C469.894 217.591 460.614 215.242 452.432 210.545C444.288 205.848 437.848 199.049 433.114 190.148C428.417 181.246 426.068 170.47 426.068 157.818C426.068 145.129 428.455 134.333 433.227 125.432C438 116.53 444.477 109.75 452.659 105.091C460.841 100.394 470.045 98.0455 480.273 98.0455C487.015 98.0455 493.265 98.9924 499.023 100.886C504.818 102.78 509.951 105.545 514.42 109.182C518.89 112.78 522.527 117.193 525.33 122.42C528.17 127.648 529.989 133.633 530.784 140.375ZM587.403 217.705C578.578 217.705 570.945 215.83 564.506 212.08C558.104 208.292 553.161 203.027 549.676 196.284C546.191 189.504 544.449 181.644 544.449 172.705C544.449 163.689 546.191 155.811 549.676 149.068C553.161 142.288 558.104 137.023 564.506 133.273C570.945 129.485 578.578 127.591 587.403 127.591C596.229 127.591 603.843 129.485 610.244 133.273C616.684 137.023 621.646 142.288 625.131 149.068C628.616 155.811 630.358 163.689 630.358 172.705C630.358 181.644 628.616 189.504 625.131 196.284C621.646 203.027 616.684 208.292 610.244 212.08C603.843 215.83 596.229 217.705 587.403 217.705ZM587.517 198.955C591.532 198.955 594.884 197.818 597.574 195.545C600.263 193.235 602.29 190.091 603.653 186.114C605.055 182.136 605.756 177.61 605.756 172.534C605.756 167.458 605.055 162.932 603.653 158.955C602.29 154.977 600.263 151.833 597.574 149.523C594.884 147.212 591.532 146.057 587.517 146.057C583.464 146.057 580.055 147.212 577.29 149.523C574.563 151.833 572.498 154.977 571.097 158.955C569.733 162.932 569.051 167.458 569.051 172.534C569.051 177.61 569.733 182.136 571.097 186.114C572.498 190.091 574.563 193.235 577.29 195.545C580.055 197.818 583.464 198.955 587.517 198.955ZM646.097 216V128.727H670.301V216H646.097ZM658.256 117.477C654.657 117.477 651.57 116.284 648.994 113.898C646.456 111.473 645.188 108.576 645.188 105.205C645.188 101.871 646.456 99.0114 648.994 96.625C651.57 94.2008 654.657 92.9886 658.256 92.9886C661.854 92.9886 664.922 94.2008 667.46 96.625C670.036 99.0114 671.324 101.871 671.324 105.205C671.324 108.576 670.036 111.473 667.46 113.898C664.922 116.284 661.854 117.477 658.256 117.477ZM713.895 165.545V216H689.69V128.727H712.759V144.125H713.781C715.713 139.049 718.952 135.034 723.497 132.08C728.043 129.087 733.554 127.591 740.031 127.591C746.092 127.591 751.376 128.917 755.884 131.568C760.391 134.22 763.895 138.008 766.395 142.932C768.895 147.818 770.145 153.652 770.145 160.432V216H745.94V164.75C745.978 159.409 744.615 155.242 741.849 152.25C739.084 149.22 735.277 147.705 730.429 147.705C727.171 147.705 724.293 148.405 721.793 149.807C719.33 151.208 717.399 153.254 715.997 155.943C714.634 158.595 713.933 161.795 713.895 165.545ZM813.426 165.545V216H789.222V99.6364H812.744V144.125H813.767C815.737 138.973 818.919 134.939 823.312 132.023C827.706 129.068 833.218 127.591 839.847 127.591C845.907 127.591 851.191 128.917 855.699 131.568C860.244 134.182 863.767 137.951 866.267 142.875C868.805 147.761 870.055 153.614 870.017 160.432V216H845.812V164.75C845.85 159.371 844.487 155.186 841.722 152.193C838.994 149.201 835.169 147.705 830.244 147.705C826.949 147.705 824.032 148.405 821.494 149.807C818.994 151.208 817.025 153.254 815.585 155.943C814.184 158.595 813.464 161.795 813.426 165.545ZM928.497 217.705C919.671 217.705 912.039 215.83 905.599 212.08C899.198 208.292 894.255 203.027 890.77 196.284C887.285 189.504 885.543 181.644 885.543 172.705C885.543 163.689 887.285 155.811 890.77 149.068C894.255 142.288 899.198 137.023 905.599 133.273C912.039 129.485 919.671 127.591 928.497 127.591C937.323 127.591 944.937 129.485 951.338 133.273C957.777 137.023 962.74 142.288 966.224 149.068C969.709 155.811 971.452 163.689 971.452 172.705C971.452 181.644 969.709 189.504 966.224 196.284C962.74 203.027 957.777 208.292 951.338 212.08C944.937 215.83 937.323 217.705 928.497 217.705ZM928.611 198.955C932.626 198.955 935.978 197.818 938.668 195.545C941.357 193.235 943.384 190.091 944.747 186.114C946.149 182.136 946.849 177.61 946.849 172.534C946.849 167.458 946.149 162.932 944.747 158.955C943.384 154.977 941.357 151.833 938.668 149.523C935.978 147.212 932.626 146.057 928.611 146.057C924.558 146.057 921.149 147.212 918.384 149.523C915.656 151.833 913.592 154.977 912.19 158.955C910.827 162.932 910.145 167.458 910.145 172.534C910.145 177.61 910.827 182.136 912.19 186.114C913.592 190.091 915.656 193.235 918.384 195.545C921.149 197.818 924.558 198.955 928.611 198.955ZM1043.16 178.841V128.727H1067.36V216H1044.12V200.148H1043.21C1041.24 205.261 1037.97 209.371 1033.38 212.477C1028.84 215.583 1023.29 217.136 1016.74 217.136C1010.9 217.136 1005.77 215.811 1001.34 213.159C996.906 210.508 993.44 206.739 990.94 201.852C988.478 196.966 987.228 191.114 987.19 184.295V128.727H1011.39V179.977C1011.43 185.129 1012.82 189.201 1015.54 192.193C1018.27 195.186 1021.93 196.682 1026.51 196.682C1029.43 196.682 1032.15 196.019 1034.69 194.693C1037.23 193.33 1039.27 191.322 1040.83 188.67C1042.42 186.019 1043.19 182.742 1043.16 178.841ZM1159.34 153.614L1137.18 154.977C1136.8 153.083 1135.98 151.379 1134.73 149.864C1133.48 148.311 1131.84 147.08 1129.79 146.17C1127.78 145.223 1125.38 144.75 1122.57 144.75C1118.82 144.75 1115.66 145.545 1113.09 147.136C1110.51 148.689 1109.22 150.773 1109.22 153.386C1109.22 155.47 1110.05 157.231 1111.72 158.67C1113.39 160.11 1116.25 161.265 1120.3 162.136L1136.1 165.318C1144.58 167.061 1150.91 169.864 1155.07 173.727C1159.24 177.591 1161.32 182.667 1161.32 188.955C1161.32 194.674 1159.64 199.693 1156.27 204.011C1152.93 208.33 1148.35 211.701 1142.52 214.125C1136.72 216.511 1130.04 217.705 1122.46 217.705C1110.91 217.705 1101.7 215.299 1094.85 210.489C1088.03 205.64 1084.03 199.049 1082.86 190.716L1106.66 189.466C1107.38 192.989 1109.13 195.678 1111.89 197.534C1114.66 199.352 1118.2 200.261 1122.52 200.261C1126.76 200.261 1130.17 199.447 1132.74 197.818C1135.36 196.152 1136.68 194.011 1136.72 191.398C1136.68 189.201 1135.76 187.402 1133.94 186C1132.12 184.561 1129.32 183.462 1125.53 182.705L1110.41 179.693C1101.89 177.989 1095.55 175.034 1091.38 170.83C1087.25 166.625 1085.19 161.265 1085.19 154.75C1085.19 149.144 1086.7 144.314 1089.73 140.261C1092.8 136.208 1097.1 133.083 1102.63 130.886C1108.2 128.689 1114.71 127.591 1122.18 127.591C1133.2 127.591 1141.87 129.92 1148.2 134.58C1154.56 139.239 1158.27 145.583 1159.34 153.614ZM1216.34 217.705C1207.36 217.705 1199.63 215.886 1193.16 212.25C1186.72 208.576 1181.75 203.386 1178.27 196.682C1174.79 189.939 1173.04 181.966 1173.04 172.761C1173.04 163.784 1174.79 155.905 1178.27 149.125C1181.75 142.345 1186.66 137.061 1192.99 133.273C1199.35 129.485 1206.81 127.591 1215.37 127.591C1221.13 127.591 1226.49 128.519 1231.45 130.375C1236.45 132.193 1240.81 134.939 1244.52 138.614C1248.27 142.288 1251.19 146.909 1253.27 152.477C1255.35 158.008 1256.39 164.485 1256.39 171.909V178.557H1182.7V163.557H1233.61C1233.61 160.072 1232.85 156.985 1231.34 154.295C1229.82 151.606 1227.72 149.504 1225.03 147.989C1222.38 146.436 1219.29 145.659 1215.77 145.659C1212.1 145.659 1208.84 146.511 1206 148.216C1203.19 149.883 1201 152.136 1199.41 154.977C1197.82 157.78 1197 160.905 1196.96 164.352V178.614C1196.96 182.932 1197.76 186.663 1199.35 189.807C1200.98 192.951 1203.27 195.375 1206.22 197.08C1209.18 198.784 1212.68 199.636 1216.74 199.636C1219.43 199.636 1221.89 199.258 1224.12 198.5C1226.36 197.742 1228.27 196.606 1229.86 195.091C1231.45 193.576 1232.66 191.72 1233.5 189.523L1255.88 191C1254.75 196.379 1252.42 201.076 1248.89 205.091C1245.41 209.068 1240.9 212.174 1235.37 214.409C1229.88 216.606 1223.54 217.705 1216.34 217.705Z" fill="black"/>
<path d="M424.517 314V260.182H442.702C446.906 260.182 450.357 260.9 453.055 262.337C455.753 263.756 457.75 265.709 459.047 268.197C460.343 270.684 460.991 273.514 460.991 276.685C460.991 279.856 460.343 282.667 459.047 285.12C457.75 287.573 455.762 289.5 453.082 290.901C450.401 292.285 446.976 292.977 442.807 292.977H428.091V287.091H442.597C445.47 287.091 447.782 286.67 449.534 285.83C451.304 284.989 452.582 283.797 453.371 282.256C454.177 280.696 454.58 278.839 454.58 276.685C454.58 274.53 454.177 272.647 453.371 271.035C452.565 269.423 451.277 268.179 449.508 267.303C447.738 266.41 445.4 265.963 442.491 265.963H431.034V314H424.517ZM449.849 289.824L463.094 314H455.526L442.491 289.824H449.849ZM487.5 314.841C483.611 314.841 480.256 313.982 477.435 312.266C474.632 310.531 472.469 308.114 470.944 305.013C469.438 301.894 468.684 298.268 468.684 294.134C468.684 289.999 469.438 286.355 470.944 283.202C472.469 280.031 474.588 277.561 477.304 275.791C480.037 274.004 483.225 273.111 486.869 273.111C488.971 273.111 491.047 273.461 493.097 274.162C495.147 274.863 497.013 276.001 498.694 277.578C500.376 279.137 501.716 281.205 502.715 283.78C503.714 286.355 504.213 289.526 504.213 293.293V295.92H473.099V290.56H497.906C497.906 288.282 497.451 286.25 496.54 284.463C495.646 282.676 494.367 281.266 492.703 280.232C491.056 279.199 489.112 278.682 486.869 278.682C484.399 278.682 482.262 279.295 480.457 280.521C478.67 281.73 477.295 283.307 476.331 285.251C475.368 287.196 474.886 289.281 474.886 291.506V295.08C474.886 298.128 475.412 300.712 476.463 302.832C477.532 304.934 479.012 306.537 480.904 307.641C482.796 308.727 484.995 309.27 487.5 309.27C489.129 309.27 490.601 309.042 491.915 308.587C493.246 308.114 494.394 307.413 495.357 306.484C496.321 305.538 497.065 304.365 497.591 302.963L503.582 304.645C502.952 306.677 501.892 308.464 500.403 310.006C498.913 311.53 497.074 312.721 494.884 313.58C492.694 314.42 490.233 314.841 487.5 314.841ZM525.525 314.946C522.967 314.946 520.646 314.464 518.561 313.501C516.476 312.52 514.821 311.109 513.594 309.27C512.368 307.413 511.755 305.17 511.755 302.543C511.755 300.23 512.21 298.356 513.121 296.919C514.032 295.465 515.25 294.326 516.774 293.503C518.298 292.679 519.98 292.066 521.819 291.663C523.676 291.243 525.542 290.91 527.417 290.665C529.869 290.349 531.858 290.113 533.382 289.955C534.924 289.78 536.045 289.491 536.746 289.088C537.464 288.685 537.823 287.984 537.823 286.986V286.776C537.823 284.183 537.113 282.168 535.694 280.732C534.293 279.295 532.164 278.577 529.309 278.577C526.348 278.577 524.027 279.225 522.345 280.521C520.663 281.818 519.481 283.202 518.797 284.673L512.911 282.571C513.962 280.118 515.364 278.209 517.116 276.842C518.885 275.458 520.812 274.495 522.897 273.952C524.999 273.391 527.066 273.111 529.099 273.111C530.395 273.111 531.884 273.268 533.566 273.584C535.265 273.882 536.903 274.504 538.48 275.45C540.074 276.396 541.397 277.823 542.448 279.733C543.499 281.643 544.025 284.2 544.025 287.406V314H537.823V308.534H537.508C537.087 309.41 536.386 310.347 535.405 311.346C534.424 312.344 533.119 313.194 531.49 313.895C529.861 314.596 527.872 314.946 525.525 314.946ZM526.471 309.375C528.923 309.375 530.991 308.893 532.672 307.93C534.372 306.966 535.651 305.722 536.509 304.198C537.385 302.674 537.823 301.071 537.823 299.389V293.713C537.56 294.028 536.982 294.317 536.089 294.58C535.213 294.826 534.197 295.045 533.04 295.237C531.902 295.412 530.789 295.57 529.703 295.71C528.634 295.833 527.767 295.938 527.101 296.026C525.49 296.236 523.983 296.577 522.581 297.05C521.198 297.506 520.076 298.198 519.218 299.126C518.377 300.037 517.956 301.281 517.956 302.858C517.956 305.013 518.754 306.642 520.348 307.746C521.96 308.832 524.001 309.375 526.471 309.375ZM561.546 260.182V314H555.344V260.182H561.546ZM596.03 288.037V293.818H572.484V288.037H596.03ZM623.865 314.841C619.976 314.841 616.621 313.982 613.8 312.266C610.997 310.531 608.834 308.114 607.31 305.013C605.803 301.894 605.05 298.268 605.05 294.134C605.05 289.999 605.803 286.355 607.31 283.202C608.834 280.031 610.954 277.561 613.669 275.791C616.402 274.004 619.59 273.111 623.234 273.111C625.337 273.111 627.413 273.461 629.462 274.162C631.512 274.863 633.378 276.001 635.06 277.578C636.741 279.137 638.082 281.205 639.08 283.78C640.079 286.355 640.578 289.526 640.578 293.293V295.92H609.464V290.56H634.271C634.271 288.282 633.816 286.25 632.905 284.463C632.011 282.676 630.732 281.266 629.068 280.232C627.421 279.199 625.477 278.682 623.234 278.682C620.764 278.682 618.627 279.295 616.822 280.521C615.036 281.73 613.66 283.307 612.697 285.251C611.733 287.196 611.251 289.281 611.251 291.506V295.08C611.251 298.128 611.777 300.712 612.828 302.832C613.897 304.934 615.377 306.537 617.269 307.641C619.161 308.727 621.36 309.27 623.865 309.27C625.494 309.27 626.966 309.042 628.28 308.587C629.611 308.114 630.759 307.413 631.722 306.484C632.686 305.538 633.43 304.365 633.956 302.963L639.947 304.645C639.317 306.677 638.257 308.464 636.768 310.006C635.279 311.53 633.439 312.721 631.249 313.58C629.059 314.42 626.598 314.841 623.865 314.841ZM678.603 282.676L673.032 284.253C672.682 283.324 672.165 282.422 671.482 281.546C670.816 280.653 669.905 279.917 668.749 279.339C667.592 278.761 666.112 278.472 664.308 278.472C661.837 278.472 659.779 279.041 658.132 280.18C656.503 281.301 655.688 282.729 655.688 284.463C655.688 286.005 656.249 287.222 657.37 288.116C658.491 289.009 660.243 289.754 662.626 290.349L668.617 291.821C672.226 292.697 674.915 294.037 676.685 295.842C678.454 297.629 679.339 299.932 679.339 302.753C679.339 305.065 678.673 307.133 677.342 308.955C676.028 310.777 674.188 312.213 671.823 313.264C669.458 314.315 666.708 314.841 663.572 314.841C659.455 314.841 656.047 313.947 653.349 312.161C650.652 310.374 648.943 307.763 648.225 304.33L654.112 302.858C654.672 305.03 655.732 306.66 657.291 307.746C658.868 308.832 660.926 309.375 663.467 309.375C666.357 309.375 668.652 308.762 670.352 307.536C672.068 306.292 672.927 304.803 672.927 303.068C672.927 301.667 672.436 300.493 671.455 299.547C670.474 298.583 668.968 297.865 666.935 297.392L660.208 295.815C656.512 294.939 653.796 293.582 652.062 291.742C650.345 289.885 649.487 287.564 649.487 284.778C649.487 282.501 650.126 280.486 651.405 278.734C652.701 276.982 654.462 275.607 656.687 274.609C658.929 273.61 661.469 273.111 664.308 273.111C668.302 273.111 671.438 273.987 673.715 275.739C676.01 277.491 677.639 279.803 678.603 282.676ZM706.228 273.636V278.892H685.311V273.636H706.228ZM691.407 263.966H697.609V302.438C697.609 304.189 697.863 305.503 698.371 306.379C698.896 307.238 699.562 307.816 700.368 308.114C701.191 308.394 702.059 308.534 702.97 308.534C703.653 308.534 704.213 308.499 704.651 308.429C705.089 308.341 705.44 308.271 705.703 308.219L706.964 313.79C706.544 313.947 705.957 314.105 705.203 314.263C704.45 314.438 703.495 314.526 702.339 314.526C700.587 314.526 698.87 314.149 697.188 313.396C695.524 312.642 694.14 311.495 693.036 309.953C691.95 308.411 691.407 306.467 691.407 304.119V263.966ZM727.435 314.946C724.877 314.946 722.556 314.464 720.471 313.501C718.386 312.52 716.731 311.109 715.504 309.27C714.278 307.413 713.665 305.17 713.665 302.543C713.665 300.23 714.12 298.356 715.031 296.919C715.942 295.465 717.16 294.326 718.684 293.503C720.208 292.679 721.89 292.066 723.73 291.663C725.587 291.243 727.452 290.91 729.327 290.665C731.78 290.349 733.768 290.113 735.292 289.955C736.834 289.78 737.955 289.491 738.656 289.088C739.374 288.685 739.733 287.984 739.733 286.986V286.776C739.733 284.183 739.024 282.168 737.605 280.732C736.203 279.295 734.075 278.577 731.219 278.577C728.258 278.577 725.937 279.225 724.255 280.521C722.573 281.818 721.391 283.202 720.708 284.673L714.821 282.571C715.872 280.118 717.274 278.209 719.026 276.842C720.795 275.458 722.722 274.495 724.807 273.952C726.909 273.391 728.977 273.111 731.009 273.111C732.305 273.111 733.794 273.268 735.476 273.584C737.175 273.882 738.813 274.504 740.39 275.45C741.984 276.396 743.307 277.823 744.358 279.733C745.409 281.643 745.935 284.2 745.935 287.406V314H739.733V308.534H739.418C738.997 309.41 738.297 310.347 737.316 311.346C736.334 312.344 735.029 313.194 733.4 313.895C731.771 314.596 729.782 314.946 727.435 314.946ZM728.381 309.375C730.834 309.375 732.901 308.893 734.583 307.93C736.282 306.966 737.561 305.722 738.419 304.198C739.295 302.674 739.733 301.071 739.733 299.389V293.713C739.47 294.028 738.892 294.317 737.999 294.58C737.123 294.826 736.107 295.045 734.95 295.237C733.812 295.412 732.699 295.57 731.613 295.71C730.544 295.833 729.677 295.938 729.012 296.026C727.4 296.236 725.893 296.577 724.492 297.05C723.108 297.506 721.986 298.198 721.128 299.126C720.287 300.037 719.867 301.281 719.867 302.858C719.867 305.013 720.664 306.642 722.258 307.746C723.87 308.832 725.911 309.375 728.381 309.375ZM774.808 273.636V278.892H753.891V273.636H774.808ZM759.987 263.966H766.189V302.438C766.189 304.189 766.443 305.503 766.951 306.379C767.477 307.238 768.142 307.816 768.948 308.114C769.772 308.394 770.639 308.534 771.55 308.534C772.233 308.534 772.794 308.499 773.232 308.429C773.67 308.341 774.02 308.271 774.283 308.219L775.544 313.79C775.124 313.947 774.537 314.105 773.783 314.263C773.03 314.438 772.075 314.526 770.919 314.526C769.167 314.526 767.45 314.149 765.768 313.396C764.104 312.642 762.72 311.495 761.616 309.953C760.53 308.411 759.987 306.467 759.987 304.119V263.966ZM800.627 314.841C796.738 314.841 793.383 313.982 790.562 312.266C787.759 310.531 785.596 308.114 784.071 305.013C782.565 301.894 781.811 298.268 781.811 294.134C781.811 289.999 782.565 286.355 784.071 283.202C785.596 280.031 787.715 277.561 790.431 275.791C793.164 274.004 796.352 273.111 799.996 273.111C802.098 273.111 804.174 273.461 806.224 274.162C808.274 274.863 810.14 276.001 811.821 277.578C813.503 279.137 814.843 281.205 815.842 283.78C816.841 286.355 817.34 289.526 817.34 293.293V295.92H786.226V290.56H811.033C811.033 288.282 810.578 286.25 809.667 284.463C808.773 282.676 807.494 281.266 805.83 280.232C804.183 279.199 802.239 278.682 799.996 278.682C797.526 278.682 795.389 279.295 793.584 280.521C791.797 281.73 790.422 283.307 789.458 285.251C788.495 287.196 788.013 289.281 788.013 291.506V295.08C788.013 298.128 788.539 300.712 789.59 302.832C790.658 304.934 792.139 306.537 794.031 307.641C795.923 308.727 798.122 309.27 800.627 309.27C802.256 309.27 803.728 309.042 805.042 308.587C806.373 308.114 807.52 307.413 808.484 306.484C809.448 305.538 810.192 304.365 810.718 302.963L816.709 304.645C816.078 306.677 815.019 308.464 813.529 310.006C812.04 311.53 810.201 312.721 808.011 313.58C805.821 314.42 803.36 314.841 800.627 314.841ZM865.14 273.636V278.892H844.223V273.636H865.14ZM850.319 263.966H856.521V302.438C856.521 304.189 856.775 305.503 857.283 306.379C857.809 307.238 858.474 307.816 859.28 308.114C860.104 308.394 860.971 308.534 861.882 308.534C862.565 308.534 863.126 308.499 863.564 308.429C864.002 308.341 864.352 308.271 864.615 308.219L865.876 313.79C865.456 313.947 864.869 314.105 864.115 314.263C863.362 314.438 862.407 314.526 861.251 314.526C859.499 314.526 857.782 314.149 856.1 313.396C854.436 312.642 853.052 311.495 851.949 309.953C850.862 308.411 850.319 306.467 850.319 304.119V263.966ZM890.433 314.841C886.789 314.841 883.592 313.974 880.842 312.239C878.109 310.505 875.971 308.079 874.43 304.96C872.906 301.842 872.143 298.198 872.143 294.028C872.143 289.824 872.906 286.154 874.43 283.018C875.971 279.882 878.109 277.447 880.842 275.712C883.592 273.978 886.789 273.111 890.433 273.111C894.077 273.111 897.266 273.978 899.999 275.712C902.749 277.447 904.886 279.882 906.411 283.018C907.952 286.154 908.723 289.824 908.723 294.028C908.723 298.198 907.952 301.842 906.411 304.96C904.886 308.079 902.749 310.505 899.999 312.239C897.266 313.974 894.077 314.841 890.433 314.841ZM890.433 309.27C893.201 309.27 895.479 308.56 897.266 307.141C899.053 305.722 900.375 303.857 901.234 301.544C902.092 299.232 902.521 296.726 902.521 294.028C902.521 291.33 902.092 288.817 901.234 286.487C900.375 284.156 899.053 282.273 897.266 280.837C895.479 279.4 893.201 278.682 890.433 278.682C887.665 278.682 885.388 279.4 883.601 280.837C881.814 282.273 880.491 284.156 879.633 286.487C878.774 288.817 878.345 291.33 878.345 294.028C878.345 296.726 878.774 299.232 879.633 301.544C880.491 303.857 881.814 305.722 883.601 307.141C885.388 308.56 887.665 309.27 890.433 309.27ZM923.971 299.284L923.866 291.611H925.127L942.786 273.636H950.46L931.644 292.662H931.119L923.971 299.284ZM918.19 314V260.182H924.392V314H918.19ZM943.838 314L928.07 294.028L932.485 289.719L951.721 314H943.838ZM973.703 314.841C969.814 314.841 966.459 313.982 963.638 312.266C960.835 310.531 958.672 308.114 957.148 305.013C955.641 301.894 954.888 298.268 954.888 294.134C954.888 289.999 955.641 286.355 957.148 283.202C958.672 280.031 960.791 277.561 963.507 275.791C966.24 274.004 969.428 273.111 973.072 273.111C975.175 273.111 977.251 273.461 979.3 274.162C981.35 274.863 983.216 276.001 984.898 277.578C986.579 279.137 987.92 281.205 988.918 283.78C989.917 286.355 990.416 289.526 990.416 293.293V295.92H959.302V290.56H984.109C984.109 288.282 983.654 286.25 982.743 284.463C981.849 282.676 980.57 281.266 978.906 280.232C977.259 279.199 975.315 278.682 973.072 278.682C970.602 278.682 968.465 279.295 966.66 280.521C964.873 281.73 963.498 283.307 962.535 285.251C961.571 287.196 961.089 289.281 961.089 291.506V295.08C961.089 298.128 961.615 300.712 962.666 302.832C963.735 304.934 965.215 306.537 967.107 307.641C968.999 308.727 971.198 309.27 973.703 309.27C975.332 309.27 976.804 309.042 978.118 308.587C979.449 308.114 980.597 307.413 981.56 306.484C982.524 305.538 983.268 304.365 983.794 302.963L989.785 304.645C989.155 306.677 988.095 308.464 986.606 310.006C985.117 311.53 983.277 312.721 981.087 313.58C978.897 314.42 976.436 314.841 973.703 314.841ZM1006.05 289.719V314H999.85V273.636H1005.84V279.943H1006.37C1007.31 277.893 1008.75 276.247 1010.68 275.003C1012.6 273.741 1015.09 273.111 1018.14 273.111C1020.87 273.111 1023.26 273.671 1025.31 274.793C1027.36 275.896 1028.96 277.578 1030.1 279.838C1031.24 282.08 1031.8 284.919 1031.8 288.352V314H1025.6V288.773C1025.6 285.602 1024.78 283.132 1023.13 281.362C1021.49 279.575 1019.23 278.682 1016.35 278.682C1014.37 278.682 1012.6 279.111 1011.04 279.969C1009.5 280.828 1008.29 282.08 1007.39 283.727C1006.5 285.374 1006.05 287.371 1006.05 289.719ZM1043.14 314V273.636H1049.34V314H1043.14ZM1046.29 266.909C1045.08 266.909 1044.04 266.497 1043.16 265.674C1042.3 264.851 1041.88 263.861 1041.88 262.705C1041.88 261.548 1042.3 260.558 1043.16 259.735C1044.04 258.912 1045.08 258.5 1046.29 258.5C1047.5 258.5 1048.53 258.912 1049.39 259.735C1050.27 260.558 1050.71 261.548 1050.71 262.705C1050.71 263.861 1050.27 264.851 1049.39 265.674C1048.53 266.497 1047.5 266.909 1046.29 266.909ZM1059.54 314V309.27L1082.46 279.838V279.418H1060.28V273.636H1090.44V278.577L1068.16 307.798V308.219H1091.18V314H1059.54ZM1112.61 314.946C1110.05 314.946 1107.73 314.464 1105.65 313.501C1103.56 312.52 1101.91 311.109 1100.68 309.27C1099.45 307.413 1098.84 305.17 1098.84 302.543C1098.84 300.23 1099.3 298.356 1100.21 296.919C1101.12 295.465 1102.34 294.326 1103.86 293.503C1105.38 292.679 1107.07 292.066 1108.91 291.663C1110.76 291.243 1112.63 290.91 1114.5 290.665C1116.96 290.349 1118.94 290.113 1120.47 289.955C1122.01 289.78 1123.13 289.491 1123.83 289.088C1124.55 288.685 1124.91 287.984 1124.91 286.986V286.776C1124.91 284.183 1124.2 282.168 1122.78 280.732C1121.38 279.295 1119.25 278.577 1116.39 278.577C1113.43 278.577 1111.11 279.225 1109.43 280.521C1107.75 281.818 1106.57 283.202 1105.88 284.673L1100 282.571C1101.05 280.118 1102.45 278.209 1104.2 276.842C1105.97 275.458 1107.9 274.495 1109.98 273.952C1112.09 273.391 1114.15 273.111 1116.18 273.111C1117.48 273.111 1118.97 273.268 1120.65 273.584C1122.35 273.882 1123.99 274.504 1125.57 275.45C1127.16 276.396 1128.48 277.823 1129.53 279.733C1130.59 281.643 1131.11 284.2 1131.11 287.406V314H1124.91V308.534H1124.59C1124.17 309.41 1123.47 310.347 1122.49 311.346C1121.51 312.344 1120.21 313.194 1118.58 313.895C1116.95 314.596 1114.96 314.946 1112.61 314.946ZM1113.56 309.375C1116.01 309.375 1118.08 308.893 1119.76 307.93C1121.46 306.966 1122.74 305.722 1123.59 304.198C1124.47 302.674 1124.91 301.071 1124.91 299.389V293.713C1124.65 294.028 1124.07 294.317 1123.17 294.58C1122.3 294.826 1121.28 295.045 1120.13 295.237C1118.99 295.412 1117.88 295.57 1116.79 295.71C1115.72 295.833 1114.85 295.938 1114.19 296.026C1112.58 296.236 1111.07 296.577 1109.67 297.05C1108.28 297.506 1107.16 298.198 1106.3 299.126C1105.46 300.037 1105.04 301.281 1105.04 302.858C1105.04 305.013 1105.84 306.642 1107.43 307.746C1109.05 308.832 1111.09 309.375 1113.56 309.375ZM1159.98 273.636V278.892H1139.07V273.636H1159.98ZM1145.16 263.966H1151.36V302.438C1151.36 304.189 1151.62 305.503 1152.13 306.379C1152.65 307.238 1153.32 307.816 1154.12 308.114C1154.95 308.394 1155.81 308.534 1156.73 308.534C1157.41 308.534 1157.97 308.499 1158.41 308.429C1158.85 308.341 1159.2 308.271 1159.46 308.219L1160.72 313.79C1160.3 313.947 1159.71 314.105 1158.96 314.263C1158.21 314.438 1157.25 314.526 1156.09 314.526C1154.34 314.526 1152.63 314.149 1150.94 313.396C1149.28 312.642 1147.9 311.495 1146.79 309.953C1145.71 308.411 1145.16 306.467 1145.16 304.119V263.966ZM1169.31 314V273.636H1175.51V314H1169.31ZM1172.47 266.909C1171.26 266.909 1170.22 266.497 1169.34 265.674C1168.48 264.851 1168.05 263.861 1168.05 262.705C1168.05 261.548 1168.48 260.558 1169.34 259.735C1170.22 258.912 1171.26 258.5 1172.47 258.5C1173.68 258.5 1174.71 258.912 1175.57 259.735C1176.44 260.558 1176.88 261.548 1176.88 262.705C1176.88 263.861 1176.44 264.851 1175.57 265.674C1174.71 266.497 1173.68 266.909 1172.47 266.909ZM1203.27 314.841C1199.63 314.841 1196.43 313.974 1193.68 312.239C1190.95 310.505 1188.81 308.079 1187.27 304.96C1185.74 301.842 1184.98 298.198 1184.98 294.028C1184.98 289.824 1185.74 286.154 1187.27 283.018C1188.81 279.882 1190.95 277.447 1193.68 275.712C1196.43 273.978 1199.63 273.111 1203.27 273.111C1206.92 273.111 1210.1 273.978 1212.84 275.712C1215.59 277.447 1217.72 279.882 1219.25 283.018C1220.79 286.154 1221.56 289.824 1221.56 294.028C1221.56 298.198 1220.79 301.842 1219.25 304.96C1217.72 308.079 1215.59 310.505 1212.84 312.239C1210.1 313.974 1206.92 314.841 1203.27 314.841ZM1203.27 309.27C1206.04 309.27 1208.32 308.56 1210.1 307.141C1211.89 305.722 1213.21 303.857 1214.07 301.544C1214.93 299.232 1215.36 296.726 1215.36 294.028C1215.36 291.33 1214.93 288.817 1214.07 286.487C1213.21 284.156 1211.89 282.273 1210.1 280.837C1208.32 279.4 1206.04 278.682 1203.27 278.682C1200.5 278.682 1198.23 279.4 1196.44 280.837C1194.65 282.273 1193.33 284.156 1192.47 286.487C1191.61 288.817 1191.18 291.33 1191.18 294.028C1191.18 296.726 1191.61 299.232 1192.47 301.544C1193.33 303.857 1194.65 305.722 1196.44 307.141C1198.23 308.56 1200.5 309.27 1203.27 309.27ZM1237.23 289.719V314H1231.03V273.636H1237.02V279.943H1237.54C1238.49 277.893 1239.93 276.247 1241.85 275.003C1243.78 273.741 1246.27 273.111 1249.32 273.111C1252.05 273.111 1254.44 273.671 1256.49 274.793C1258.54 275.896 1260.14 277.578 1261.27 279.838C1262.41 282.08 1262.98 284.919 1262.98 288.352V314H1256.78V288.773C1256.78 285.602 1255.96 283.132 1254.31 281.362C1252.66 279.575 1250.4 278.682 1247.53 278.682C1245.55 278.682 1243.78 279.111 1242.22 279.969C1240.68 280.828 1239.46 282.08 1238.57 283.727C1237.68 285.374 1237.23 287.371 1237.23 289.719Z" fill="black"/>
<path d="M128.919 104.5L129.119 33.8824L162.086 65.4397V136.445L128.919 104.5Z" fill="#FFA459"/>
<path d="M50.3657 213.367V111.72L162.086 224.356V326.919L50.3657 213.367Z" fill="#005AFB"/>
<path d="M92.4897 153.844V68.6805L162.086 136.447V224.358L92.4897 153.844Z" fill="#33C7DF"/>
<path d="M197.419 103.5L196.884 33.8824L162.086 65.4401V136.445L197.419 103.5Z" fill="#FFD656"/>
<path d="M275.637 210.62V112.636L162.086 224.356V326.919L275.637 210.62Z" fill="#498AFF"/>
<path d="M233.513 154.76V68.6805L162.086 136.586V224.356L233.513 154.76Z" fill="#6FCFDF"/>
<path d="M3.8147e-06 161.17L162.086 326.919V332.413H16.4833C8.4248 332.413 2.13673 321.424 3.8147e-06 315.93V161.17Z" fill="#152453"/>
<path d="M326.919 158.423L162.086 326.831V332.413H310.156C318.351 332.413 324.746 321.248 326.919 315.666V158.423Z" fill="#334681"/>
<path d="M129.119 33.8824L163.917 0.915745L196.884 33.8824L162.086 66.849L129.119 33.8824Z" fill="#F7FFB4"/>
<path d="M1.57312e-06 161.17L50.3657 111.72L50.3657 212.451L1.57312e-06 161.17Z" fill="#596793"/>
<path d="M50.3657 111.72L92.4896 68.6801L92.4896 154.175L50.3657 111.72Z" fill="#7AB4BD"/>
<path d="M92.4897 68.6805L129.119 33.8824L129.119 104.394L92.4897 68.6805Z" fill="#C2D9DD"/>
<path d="M326.919 158.456L275.637 112.636L275.637 210.62L326.919 158.456Z" fill="#596793"/>
<path d="M275.637 112.636L233.513 68.6804L233.513 154.077L275.637 112.636Z" fill="#7AB4BD"/>
<path d="M233.513 68.6804L196.884 33.8823L196.884 103.479L233.513 68.6804Z" fill="#C2D9DD"/>
</svg>
